<?xml version="1.0" encoding="iso-8859-1"?>
<!-- Generator: Adobe Illustrator 17.1.0, SVG Export Plug-In . SVG Version: 6.00 Build 0)  -->
<!DOCTYPE svg PUBLIC "-//W3C//DTD SVG 1.1//EN" "http://www.w3.org/Graphics/SVG/1.1/DTD/svg11.dtd">
<svg version="1.1" id="Capa_1" xmlns="http://www.w3.org/2000/svg" xmlns:xlink="http://www.w3.org/1999/xlink" x="0px" y="0px"
	 viewBox="0 0 150 150" style="enable-background:new 0 0 150 150;" xml:space="preserve">
<g>
	<path d="M147.161,70.725c-1.775-1.366-3.961-2.868-6.711-3.653c-3.476-0.993-6.541-0.436-9.212,1.658
		c-0.753,0.591-1.508,1.178-2.264,1.766c-1.76,1.369-3.58,2.785-5.342,4.217c-1.016,0.823-2.212,0.648-2.783-0.45
		c-0.451-0.868-0.726-1.524-0.594-1.908c0.111-0.326,0.578-0.654,1.612-1.132c0.279-0.129,0.573-0.237,0.865-0.346
		c0.579-0.215,1.177-0.437,1.697-0.811c0.487-0.352,0.812-0.858,1.125-1.349c0.124-0.193,0.247-0.387,0.38-0.566
		c0,0,0.069-0.094,0.155-0.209s0.059-0.275-0.06-0.355l-0.214-0.146c-0.054-0.036-0.106-0.085-0.161-0.132
		c-0.188-0.166-0.423-0.372-0.805-0.372c-0.537,0.052-1.062,0.135-1.588,0.217c-0.477,0.075-0.953,0.15-1.434,0.201
		c-0.708,0.076-1.515,0.1-2.295,0.073c-0.025-0.001-0.057-0.009-0.091-0.022c-0.048-0.018-0.067-0.066-0.042-0.099
		c0.018-0.024,0.036-0.043,0.05-0.055c0.862-0.658,1.809-1.345,3.069-2.226c0.449-0.314,0.986-0.677,1.562-0.983
		c1.19-0.633,1.776-1.71,1.79-3.293c0.001-0.174-0.027-0.344-0.083-0.507c-0.094-0.27-0.187-0.495-0.113-0.548
		s0.061-0.068-0.028-0.035s-0.184,0.032-0.214-0.001c-0.018-0.02-0.037-0.04-0.057-0.059c-0.606-0.612-1.712-0.881-2.51-0.592
		c-0.593,0.215-1.17,0.475-1.729,0.726c-0.388,0.174-0.774,0.348-1.167,0.508l-0.276,0.113c-0.532,0.222-1.036,0.431-1.542,0.507
		c-0.136,0.019-0.288,0.011-0.425-0.009c-0.233-0.034-0.682-0.467-0.784-0.984c-0.086-0.432-0.002-0.777,0.165-0.897
		c0.396-0.285,0.824-0.525,1.278-0.778c0.402-0.226,0.806-0.451,1.186-0.709c0.341-0.229,0.591-0.534,0.834-0.83
		c0.083-0.102,0.167-0.204,0.255-0.302c0.037-0.042,0.065-0.084,0.086-0.123c0.039-0.073,0.131-0.252,0.244-0.385
		c0.068-0.08,0.136-0.16,0.205-0.24c0,0,0.151-0.176,0.337-0.394c0.186-0.218,0.158-0.436-0.062-0.488l-0.398-0.094
		c-0.103-0.024-0.205-0.057-0.308-0.088c-0.252-0.078-0.523-0.177-0.923-0.164c-0.4,0.02-0.788,0.09-1.164,0.157
		c-0.24,0.044-0.481,0.088-0.724,0.117c-0.037,0.004-0.073,0.007-0.111,0.01c-0.061,0.004-0.014-0.121,0.116-0.268
		c0.081-0.093,0.162-0.178,0.246-0.256l0.677-0.629c1.256-1.168,2.554-2.375,3.893-3.477c1.011-0.831,1.424-1.796,1.265-2.948
		c-0.065-0.48-0.593-0.952-1.021-1.053c-1.017-0.234-1.967,0.272-2.727,0.729c-1.672,1.006-3.471,2.022-5.458,2.436
		c-0.488,0.1-0.946,0.122-1.387,0.062c-0.547-0.074-0.799-0.517-0.555-0.791c0.143-0.161,0.298-0.321,0.456-0.484
		c0.833-0.858,1.869-1.927,1.419-3.796c0,0-0.032-0.133-0.072-0.297c-0.04-0.164-0.478-0.108-0.978,0.126l-0.174,0.081
		c-0.5,0.234-0.776,0.269-0.612,0.081c0.099-0.114,0.198-0.227,0.298-0.339c0.277-0.311,0.566-0.61,0.855-0.909
		c0.444-0.46,0.903-0.936,1.316-1.448c1.052-1.306,0.903-3.179-0.334-4.177c-0.242-0.193-0.569-0.234-0.801-0.234
		c-0.296,0-0.583,0.067-0.786,0.186c-0.757,0.437-1.493,0.909-2.229,1.382c-0.439,0.282-0.879,0.564-1.323,0.84
		c-0.367,0.227-0.731,0.456-1.096,0.687c-1.112,0.703-2.263,1.43-3.441,2.024c-0.224,0.114-0.423,0.091-0.562-0.065
		c-0.127-0.144-0.183-0.37-0.153-0.621c0.084-0.695,0.266-1.267,0.526-1.652c1.286-1.905,2.517-3.599,3.761-5.177
		c0.695-0.881,0.995-1.784,0.917-2.763c-0.038-0.48-0.377-1.028-0.772-1.246c-0.398-0.219-1.101,0.054-1.421,0.344
		c-0.553,0.502-1.092,1.02-1.63,1.538c-0.981,0.943-1.997,1.919-3.071,2.761c-0.818,0.64-1.937,0.995-3.018,1.339
		c0,0-0.026,0.008-0.057,0.018s-0.198-0.005-0.359-0.073c-0.093-0.039-0.194-0.086-0.289-0.131c-0.022-0.01-0.045-0.021-0.067-0.031
		c-0.038-0.017-0.016-0.16,0.049-0.319c0.04-0.097,0.079-0.193,0.119-0.288c0.317-0.771,0.618-1.5,0.874-2.259
		c0.272-0.804,0.451-1.639,0.625-2.445l0.06-0.276c0.046-0.208-0.026-0.431-0.212-0.662c-0.079-0.097-0.159-0.173-0.241-0.226
		c-0.154-0.1-0.34-0.094-0.373-0.091s-0.324,0.05-0.626,0.173c-0.178,0.073-0.352,0.172-0.492,0.318
		c-0.437,0.453-0.86,0.917-1.284,1.381c-0.541,0.593-1.082,1.187-1.649,1.752c-0.03,0.03-0.089,0.057-0.162,0.081
		c-0.095,0.031-0.192-0.05-0.198-0.172c-0.005-0.084-0.001-0.16,0.016-0.219c0.24-0.812,0.504-1.617,0.767-2.422
		c0.388-1.188,0.789-2.417,1.111-3.653c0.22-0.847,0.287-1.729,0.353-2.581c0.028-0.38,0.058-0.762,0.101-1.142
		c0,0,0.012-0.105,0.026-0.235s-0.078-0.253-0.207-0.274l-0.233-0.04c-0.199-0.033-0.373-0.059-0.529-0.081
		c-0.265-0.038-0.473-0.064-0.668-0.125c-0.748-0.236-1.276,0.003-1.619,0.68l-0.289,0.571c-0.646,1.277-1.314,2.599-2.036,3.854
		c-0.419,0.731-0.912,1.447-1.39,2.14c-0.062,0.091-0.125,0.181-0.187,0.272c-0.103,0.15-0.586,0.049-0.962-0.356
		c-0.618-0.665-0.499-1.307-0.168-2.605c0.282-1.107,0.638-2.225,0.981-3.304c0.274-0.863,0.549-1.727,0.793-2.599
		c0.239-0.856,0.344-1.744,0.444-2.604l0.025-0.214c0.056-0.456-0.435-0.908-0.788-1.009c-0.151-0.041-0.336-0.065-0.506-0.065
		c-0.36,0-0.623,0.101-0.783,0.298c-0.53,0.656-1.053,1.386-1.645,2.295c-0.515,0.791-1.02,1.589-1.524,2.387
		c-0.503,0.794-1.005,1.588-1.518,2.375c-0.56,0.859-1.452,1.424-2.808,1.774c-0.232,0.061-0.416,0.062-0.466,0.006
		c-0.024-0.025-0.14-0.186-0.087-0.779c0.08-0.897,0.132-1.797,0.185-2.715c0,0,0.024-0.404,0.055-0.901s-0.077-0.888-0.239-0.871
		l-0.294,0.031c-0.804,0.083-1.402,0.332-1.713,1.273c-0.256,0.777-0.619,1.551-0.97,2.298c-0.159,0.338-0.317,0.676-0.468,1.017
		c-0.109,0.246-0.222,0.375-0.357,0.433c-0.292,0.125-0.556-0.119-0.545-0.255l0.021-0.246c0.061-0.717,0.123-1.45,0.157-2.185
		c0.075-1.569,0.148-3.241,0.157-4.903c0.003-0.464-0.113-0.817-0.344-1.05c-0.362-0.362-0.923-0.384-1.622-0.012
		c-0.768,0.409-1.089,1.006-1.334,1.777c-0.342,1.073-0.736,2.155-1.118,3.202c-0.34,0.934-0.681,1.868-0.991,2.811
		c-0.065,0.197-0.116,0.197-0.166,0.197c-0.043,0-0.093-0.008-0.145-0.019c-0.079-0.017-0.254-0.122-0.35-0.265
		s-0.159-0.351-0.149-0.447c0.007-0.06,0.016-0.124,0.023-0.172l0.027-0.203c0.108-0.99,0.222-1.979,0.335-2.969
		c0,0,0.039-0.341,0.087-0.761c0.048-0.42,0.003-0.79-0.101-0.827l-0.188-0.066c-0.247-0.087-0.465-0.129-0.668-0.129
		c-0.938,0-1.246,0.912-1.348,1.212c-0.343,1.017-0.812,1.982-1.346,3.049c-0.02,0.04-0.038,0.074-0.055,0.104
		c-0.032,0.056-0.12,0.047-0.18-0.023c-0.031-0.036-0.066-0.079-0.105-0.131c-0.929-1.232-1.222-2.651-1.509-4.379
		c-0.293-1.763-0.613-3.521-0.935-5.278l-0.203-1.117c-0.029-0.162-0.097-0.285-0.188-0.454c-0.049-0.088-0.11-0.202-0.189-0.359
		c0,0-0.086-0.173-0.192-0.387c-0.106-0.214-0.3-0.226-0.432-0.027l-0.239,0.359c-0.11,0.166-0.226,0.311-0.331,0.444
		c-0.248,0.312-0.481,0.606-0.542,0.988c-0.154,0.979-0.277,1.962-0.4,2.945c-0.127,1.017-0.254,2.034-0.417,3.045
		c-0.152,0.953-0.379,1.92-0.599,2.854c-0.046,0.197-0.093,0.394-0.135,0.584c-0.072,0.323-0.252,0.734-0.418,0.913
		s-0.395,0.236-0.499,0.114c-0.07-0.082-0.127-0.162-0.161-0.242c-0.409-0.944-0.778-1.906-1.157-2.892c0,0-0.138-0.356-0.309-0.795
		c-0.17-0.439-0.667-0.676-1.11-0.529c-0.443,0.147-0.802,0.347-0.802,0.446v0.18c0,0.47,0.005,0.931,0.009,1.387
		c0.009,0.87,0.018,1.706-0.005,2.519c-0.015,0.552-0.124,1.107-0.249,1.214c-0.078,0.067-0.164,0.135-0.23,0.188
		c-0.033,0.026-0.247-0.761-0.247-0.761c-0.249-0.924-0.499-1.848-0.773-2.764c-0.212-0.709-0.483-1.406-0.807-2.075
		c-0.187-0.383-0.728-0.525-1.024-0.525c-0.076,0-0.148,0.008-0.215,0.023c-1.729,0.403-1.874,1.901-1.98,2.995L51.8,23.14
		c-0.126,1.285-0.257,2.614-0.287,3.932c-0.005,0.21-0.02,0.851-1.26,1.101c-0.276,0.054-0.384-0.007-0.58-0.695l-0.038-0.13
		c-0.119-0.402-0.191-0.82-0.269-1.264c-0.073-0.428-0.148-0.856-0.264-1.271c-0.045-0.164-0.199-0.47-0.416-0.722
		c-0.302-0.351-0.73-0.407-0.763-0.403l-0.06,0.006c-0.383,0.079-1.023,0.372-1.012,1.444c0.017,1.577-0.176,3.192-0.346,4.617
		c-0.03,0.244-0.362,0.279-0.647,0.089c-2.338-1.567-4.012-3.7-5.12-6.52c-0.047-0.121-0.07-0.259-0.098-0.398
		c-0.095-0.492-0.254-1.317-1.271-1.534c-0.175-0.037-0.329-0.056-0.471-0.056c-0.502,0-1.109,0.234-1.146,1.347
		c-0.047,1.477,0.38,2.819,0.794,4.118c0.26,0.816,0.506,1.589,0.642,2.392c0.193,1.141,0.31,2.269,0.345,3.353
		c0.003,0.086,0,0.158-0.004,0.216c-0.009,0.119-0.122,0.195-0.224,0.14c-0.05-0.027-0.109-0.063-0.178-0.112
		c-0.544-0.388-1.071-0.838-1.581-1.272c-0.391-0.333-0.781-0.667-1.187-0.98c-0.375-0.292-0.997-0.635-1.467-0.506
		c-0.821,0.227-0.767,1-0.737,1.415l0.012,0.193c0.007,0.18,0.025,0.352,0.054,0.518c0.05,0.283-0.034,0.402-0.259,0.33
		c-0.141-0.045-0.283-0.071-0.42-0.071l-0.157,0.012c-0.779,0.117-0.82,0.851-0.84,1.203c-0.005,0.092-0.009,0.186-0.022,0.276
		c-0.167,1.11,0.221,2.048,0.562,2.875c0.195,0.473,0.38,0.92,0.467,1.382c0.03,0.157,0.049,0.295,0.06,0.412
		c0.023,0.229-0.159,0.442-0.393,0.423c-0.141-0.012-0.293-0.036-0.416-0.082c-0.524-0.194-1.027-0.438-1.559-0.695
		c-0.367-0.179-0.735-0.356-1.11-0.518c-0.259-0.112-0.521-0.115-0.753-0.118c-0.078-0.001-0.156-0.002-0.231-0.009
		c0,0-0.116-0.01-0.26-0.023s-0.269,0.162-0.279,0.39l-0.02,0.414c-0.009,0.201-0.018,0.401-0.029,0.604
		c-0.068,1.154,0.654,1.807,1.235,2.331c0.155,0.141,0.312,0.281,0.455,0.433c0.017,0.018,0.032,0.037,0.048,0.059
		c0.025,0.034,0.032,0.064,0.018,0.061c-0.01-0.002-0.019-0.004-0.025-0.007c-0.391-0.127-0.783-0.25-1.177-0.373
		c-1.334-0.419-2.714-0.853-3.988-1.425c-1.114-0.501-2.157-1.123-3.262-1.782c-0.485-0.29-0.974-0.581-1.469-0.861
		c0,0-0.065-0.037-0.146-0.083c-0.08-0.046-0.205-0.037-0.277,0.02l-0.132,0.103c-0.501,0.391-0.816,0.947-0.89,1.566
		c-0.079,0.665,0.132,1.349,0.592,1.926c0.773,0.972,1.625,1.896,2.448,2.791l0.4,0.435c1.41,1.536,2.346,2.948,2.945,4.445
		c0.021,0.054,0.04,0.103,0.055,0.146c0.03,0.081,0.001,0.147-0.058,0.143c-0.034-0.002-0.069-0.005-0.106-0.009
		c-0.836-0.078-1.688-0.219-2.512-0.354c-0.481-0.08-0.964-0.159-1.445-0.228c-0.242-0.035-0.49-0.027-0.738-0.019
		c0,0-0.251,0.002-0.561,0.005c-0.31,0.003-0.469,0.171-0.354,0.375l0.207,0.37c0.048,0.087,0.106,0.173,0.166,0.259
		c0.054,0.079,0.136,0.198,0.145,0.242c0.153,1.563,1.298,2.084,2.217,2.502c0.268,0.121,0.535,0.242,0.779,0.389
		c0.504,0.305,0.818,0.865,0.818,1.465c0.001,0.506-0.233,0.938-0.641,1.185c-2.226,1.347-3.541,3.405-4.812,5.396
		c-0.243,0.38-0.486,0.761-0.736,1.137c-1.006,1.517-0.96,3.044,0.133,4.418c0.575,0.723,0.232,1.725-0.329,2.35
		c-1.434,1.596-2.624,3.521-3.748,6.057c-0.997,2.248-1.854,4.291-2.242,6.532c-0.026,0.149-0.041,0.301-0.056,0.452
		c-0.013,0.143-0.025,0.286-0.054,0.425c-0.096,0.455-0.149,0.547-0.562,0.573c-0.987,0.065-1.772,0.682-2.271,1.781
		c-0.166,0.365-0.318,0.737-0.472,1.109c-0.524,1.275-1.019,2.479-2.021,3.404c-0.617,0.571-0.936,0.764-1.26,0.764
		c-0.266,0-0.618-0.124-1.178-0.416c-0.285-0.148-0.57-0.102-0.773-0.123c0,0-0.084-0.008-0.188-0.018
		c-0.104-0.01-0.219,0.061-0.257,0.158l-0.069,0.176C1.472,91.669,2.338,94,4.854,95.81c0.646,0.464,1.258,0.754,1.817,0.862
		c1.27,0.245,2.318,0.358,3.303,0.358c1.566,0,2.946-0.298,4.219-0.911c0.186-0.09,0.358-0.136,0.512-0.136
		c0.166,0,0.428,0.044,0.795,0.419l1.369,1.398c1.065,1.087,2.131,2.173,3.174,3.266c0.381,0.399,0.726,0.807,0.742,0.914
		c0.016,0.107-0.243,0.555-0.578,0.984c-0.203,0.26-0.41,0.518-0.614,0.771c-0.336,0.418-0.673,0.835-0.991,1.268
		c-0.241,0.327-0.52,0.987-0.297,1.465c0.401,0.855,1.203,1.182,1.939,0.78c0.405-0.221,0.779-0.484,1.142-0.739
		c0.183-0.128,0.365-0.257,0.551-0.379c0.157-0.103,0.312-0.211,0.467-0.319c0.388-0.271,0.753-0.526,1.143-0.694
		c0.043-0.018,0.08-0.032,0.11-0.043c0.061-0.023,0.091-0.009,0.077,0.06c-0.007,0.035-0.017,0.076-0.033,0.123
		c-0.146,0.444-0.357,1.013-0.685,1.467c-0.598,0.828-0.553,1.762,0.114,2.379c0.334,0.308,0.829,0.344,1.173,0.344
		c0.216,0,0.438-0.017,0.666-0.035c0.345-0.026,0.62-0.209,0.863-0.37c0.074-0.049,0.148-0.099,0.223-0.14
		c0.184-0.103,0.418-0.221,0.595-0.221c0.073,0,0.164,0.019,0.286,0.151c0.544,0.588,0.623,0.853,0.365,1.233
		c-0.143,0.212-0.282,0.428-0.423,0.643c-0.419,0.644-0.815,1.252-1.289,1.799c-1.074,1.238-2.219,2.407-3.396,3.595
		c-0.663,0.669-0.681,1.457-0.055,2.342c0.364,0.518,0.828,0.626,1.152,0.626c0.315,0,0.644-0.101,0.975-0.3
		c0.183-0.11,0.353-0.249,0.521-0.388c0.182-0.15,0.353-0.293,0.52-0.361l0.44-0.18c1.857-0.757,3.778-1.539,5.698-2.192
		c0.661-0.226,2.096,0.554,2.396,1.302c0.04,0.1,0.018,0.355-0.062,0.492c-0.965,1.666-1.872,3.165-2.772,4.581
		c-0.517,0.812-0.499,2.348,0.298,3.035c0.804,0.695,2.064,0.622,2.829-0.184c0.591-0.625,1.144-1.294,1.678-1.941
		c0.232-0.28,0.465-0.562,0.701-0.84l0.202-0.242c0.142-0.171,0.283-0.342,0.433-0.506c0.585-0.64,0.889-0.866,1.161-0.866
		c0.287,0,0.704,0.219,1.243,0.549c0.588,0.359,1.171,0.731,1.746,1.113c1.396,0.929,1.396,0.929,1.088,2.593
		c-0.326,1.753-0.799,3.792-1.837,5.626c-0.21,0.368-0.348,0.798-0.389,1.211c-0.01,0.103-0.082,1.01,0.446,1.309
		c0.265,0.15,0.566,0.182,0.772,0.182c0.214,0,0.429-0.033,0.62-0.095c0.318-0.104,0.533-0.355,0.707-0.558
		c0.05-0.059,0.1-0.117,0.151-0.17c0.49-0.495,0.975-0.995,1.46-1.496c1.177-1.214,2.395-2.47,3.657-3.623
		c0.558-0.511,1.486-0.775,2.136-0.93c0.312-0.076,0.478,0.032,0.507,0.066c0.097,0.116,0.125,0.355,0.073,0.64l-0.123,0.677
		c-0.18,0.975-0.365,1.982-0.492,2.987c-0.075,0.596-0.045,1.245,0.087,1.879c0.188,0.91,0.881,1.521,1.722,1.521
		c0.478,0,0.951-0.204,1.334-0.574c0.467-0.451,0.762-1.044,0.928-1.462c0.295-0.743,0.552-1.501,0.809-2.26
		c0.114-0.339,0.229-0.679,0.348-1.017l0.037-0.105c0.264-0.762,0.424-1.075,1.033-1.114c0.765,0,1.175,0.752,1.352,1.2
		c0.883,2.241,1.396,4.741,1.569,7.643c0.006,0.107,0.004,0.222,0.002,0.339c-0.008,0.525-0.023,1.619,1.142,1.738l0.065,0.004
		c0.594,0,1.088-0.947,1.398-1.741c0.638-1.63,1.25-3.269,1.862-4.908c0.331-0.887,0.662-1.773,0.997-2.66
		c0.096-0.254,0.221-0.483,0.36-0.662c0.343-0.44,0.839-0.609,1.293-0.434c0.234,0.09,0.542,0.48,0.671,0.852
		c0.139,0.396,0.197,0.834,0.26,1.298c0.039,0.289,0.079,0.579,0.137,0.864l0.057,0.279c0.115,0.58,0.234,1.179,0.489,1.738
		c0.166,0.362,0.489,0.591,0.775,0.793c0.1,0.07,0.2,0.141,0.289,0.217c0,0,0.089,0.076,0.199,0.17s0.271,0.078,0.36-0.036
		l0.161-0.207c0.072-0.094,0.159-0.184,0.245-0.273c0.244-0.257,0.521-0.548,0.606-0.941c0.164-0.754,0.283-1.521,0.398-2.265
		c0.087-0.563,0.174-1.128,0.281-1.688c0.075-0.396,0.229-0.771,0.422-1.029c0.507-0.685,1.564-0.658,1.959,0.062
		c0.82,1.503,1.52,3.07,2.153,4.541c0.251,0.582,0.443,1.182,0.646,1.816c0.123,0.385,0.247,0.769,0.383,1.147
		c0.033,0.093,0.062,0.194,0.091,0.299c0.139,0.494,0.372,1.322,1.266,1.322c0.104,0,0.216-0.013,0.329-0.038
		c1.033-0.23,1.386-1.297,1.277-2.251c-0.34-3.005,0.33-5.966,0.985-8.505c0.288-1.121,1.658-2.063,2.881-1.875
		c0.164,0.025,0.483,0.277,0.608,0.526c0.258,0.512,0.448,1.057,0.65,1.634c0.091,0.259,0.181,0.517,0.277,0.771l0.062,0.165
		c0.103,0.277,0.207,0.555,0.345,0.814c0.474,0.889,1.298,1.27,2.232,1.027c0.847-0.222,1.328-0.936,1.287-1.909
		c-0.053-1.234-0.146-2.429-0.278-3.548l-0.024-0.198c-0.099-0.773-0.093-1.044,0.357-1.29c0.422-0.23,0.735-0.338,0.987-0.338
		c0.208,0,0.483,0.062,0.942,0.529c1.604,1.629,2.697,3.681,3.755,5.666l0.271,0.507c0.03,0.055,0.054,0.117,0.078,0.178
		c0.076,0.191,0.171,0.43,0.385,0.604c0.398,0.322,0.769,0.487,1.187,0.487c0.485-0.039,1.023-0.623,1.023-1.095
		c0-0.87-0.056-1.788-0.176-2.89c-0.088-0.799-0.186-1.598-0.283-2.396c-0.176-1.44-0.357-2.93-0.473-4.395
		c-0.029-0.385,0.196-0.972,0.476-1.232c0.811-0.759,1.777-1.408,2.711-2.036l0.123-0.082c0.294-0.2,0.56-0.083,0.836,0.278
		c0.559,0.729,1.093,1.477,1.628,2.225c0,0,0.126,0.18,0.282,0.402c0.156,0.222,0.296,0.438,0.315,0.48
		c0.011,0.026,0.024,0.051,0.037,0.075c0.2,0.37,0.67,1.237,1.627,1.237c0.165,0,0.339-0.026,0.517-0.079
		c0.33-0.097,0.628-0.372,0.838-0.774c0.29-0.554,0.365-1.243,0.193-1.757c-0.451-1.346-0.983-2.907-1.582-4.411
		c-0.349-0.876-0.316-1.246,0.143-1.648l0.309-0.278c0.674-0.617,1.27-1.128,2.047-0.719c1.402,0.739,2.449,1.43,3.293,2.171
		c0.589,0.517,1.099,1.117,1.638,1.754c0.405,0.478,0.825,0.972,1.281,1.428c0.44,0.439,1.38,0.701,1.871,0.457
		c0.333-0.163,0.576-0.447,0.685-0.799c0.127-0.413,0.062-0.881-0.185-1.314c-0.158-0.281-0.28-0.59-0.409-0.917l-0.892-2.157
		c-0.836-2.011-1.673-4.022-2.474-6.048c-0.123-0.311-0.153-0.766-0.084-1.248c0.123-0.865,1.026-1.349,1.838-0.929
		c0.759,0.396,1.447,0.92,2.177,1.475c0.289,0.221,0.578,0.44,0.872,0.652c0.374,0.271,0.736,0.407,1.077,0.407
		c0.469,0,1.016-0.293,1.147-1.116c0.092-0.582-0.064-1.295-0.389-1.774c-0.486-0.72-1.018-1.419-1.53-2.095
		c-0.396-0.522-0.793-1.045-1.173-1.579c-0.37-0.522-0.387-0.996-0.055-1.584c0.301-0.532,0.542-1.095,0.775-1.639
		c0.182-0.425,0.364-0.851,0.575-1.26c0.037-0.072,0.093-0.148,0.146-0.214c0.089-0.112,0.277-0.133,0.388,0.002
		c0.064,0.077,0.126,0.169,0.173,0.264c0.365,0.751,0.617,1.412,0.77,2.022c0.832,3.311,3.064,5.459,7.027,6.761
		c0.981,0.322,2.01,0.474,3.013,0.621l0.163,0.012c0.563,0,1.154-0.399,1.491-0.794c0.299-0.352,0.428-0.718,0.372-1.058
		c-0.099-0.614-0.785-1.07-1.136-1.226c-0.9-0.399-1.485-1.407-1.331-2.296c0.741-4.291,2.015-8.084,3.892-11.596
		c2.505-4.692,5.504-8.858,8.912-12.383c1.633-1.688,2.814-2.034,4.369-1.372c0.733,0.316,1.475,0.009,1.834-0.759
		C147.835,72.072,148.047,71.408,147.161,70.725z"/>
</g>
</svg>
